<svg width="256" height="256" viewBox="0 0 256 256" fill="none" xmlns="http://www.w3.org/2000/svg">
<rect width="256" height="256" fill="#D3E0E5"/>
<rect width="256" height="256" fill="white"/>
<path d="M127.665 223.393C131.98 221.738 135.645 220.378 139.251 218.9C142.502 217.57 145.546 215.827 148.384 213.699C150.246 212.309 150.216 211.511 148.118 210.418C140.936 206.664 135.911 200.93 132.896 193.393C127.754 180.536 131.389 165.344 141.763 156.389C152.67 146.96 167.537 145.394 179.832 152.339C198.807 163.068 202.945 186.3 188.728 203.472C174.009 221.265 155.123 228.477 132.217 224.841C131.271 224.694 130.354 224.428 129.409 224.191C129.024 224.073 128.67 223.866 127.665 223.393Z" fill="#6C94EC"/>
<path d="M70.0629 155.119C86.0437 155.119 98.9987 142.164 98.9987 126.184C98.9987 110.203 86.0437 97.2479 70.0629 97.2479C54.0821 97.2479 41.1272 110.203 41.1272 126.184C41.1272 142.164 54.0821 155.119 70.0629 155.119Z" fill="white"/>
<path d="M70.0737 159.285C51.8373 159.285 37 144.447 37 126.211C37 107.975 51.8373 93.1375 70.0737 93.1375C88.31 93.1375 103.147 107.975 103.147 126.211C103.147 144.447 88.31 159.285 70.0737 159.285ZM70.0737 101.413C56.389 101.413 45.2758 112.526 45.2758 126.211C45.2758 139.896 56.389 151.009 70.0737 151.009C83.7583 151.009 94.8715 139.896 94.8715 126.211C94.8715 112.526 83.7583 101.413 70.0737 101.413Z" fill="black"/>
<path d="M163.784 99.9959C179.765 99.9959 192.72 87.0409 192.72 71.0602C192.72 55.0794 179.765 42.1244 163.784 42.1244C147.803 42.1244 134.848 55.0794 134.848 71.0602C134.848 87.0409 147.803 99.9959 163.784 99.9959Z" fill="#6C94EC"/>
<path d="M163.841 104.104C152.402 104.104 141.259 98.1634 135.141 87.5822C130.737 79.9271 129.555 71.0306 131.831 62.4888C134.107 53.947 139.604 46.8239 147.23 42.4199C163.013 33.3166 183.289 38.7254 192.392 54.5085C201.495 70.2917 196.087 90.5674 180.274 99.7004C175.072 102.686 169.397 104.134 163.811 104.134L163.841 104.104ZM163.752 46.2327C159.555 46.2327 155.299 47.2968 151.397 49.5431C145.663 52.8534 141.555 58.2031 139.841 64.5873C138.126 71.001 139.013 77.6808 142.323 83.4148C149.151 95.2669 164.373 99.3457 176.195 92.4886C188.047 85.6611 192.097 70.4395 185.269 58.6169C180.688 50.6662 172.323 46.2327 163.752 46.2327Z" fill="black"/>
<path d="M179.847 152.37C167.552 145.424 152.685 146.991 141.778 156.419C131.404 165.375 127.769 180.537 132.911 193.424C135.394 199.66 139.266 204.655 144.586 208.32C145.709 209.089 146.892 209.798 148.133 210.448C150.232 211.542 150.261 212.34 148.399 213.729C147.394 214.468 146.389 215.177 145.325 215.828C145.325 215.828 145.325 215.828 145.296 215.828C145.148 215.916 145 216.005 144.882 216.094C144.882 216.094 144.823 216.123 144.793 216.153C143.02 217.217 141.187 218.133 139.266 218.931C139.177 218.961 139.118 218.99 139.03 219.02C136.99 219.847 134.951 220.645 132.793 221.473C132.379 221.621 131.966 221.798 131.552 221.946C131.02 222.153 130.458 222.36 129.926 222.567C129.217 222.833 128.478 223.128 127.71 223.424C128.123 223.601 128.419 223.749 128.655 223.867C129.01 224.044 129.246 224.163 129.483 224.222C130.399 224.488 131.345 224.724 132.291 224.872C134.98 225.286 137.611 225.581 140.182 225.7C159.601 226.675 175.827 219.227 188.832 203.503C203.049 186.33 198.911 163.099 179.936 152.37H179.847ZM154.754 205.394C153.956 204.655 152.98 203.976 151.798 203.355C146.419 200.547 142.665 196.35 140.33 190.468C136.458 180.744 139.177 169.217 147.01 162.478C151.946 158.222 157.768 156.035 163.68 156.035C167.847 156.035 172.044 157.129 175.946 159.345C182.951 163.306 187.532 169.454 188.862 176.725C190.251 184.202 188.034 191.887 182.625 198.449C175.059 207.581 166.576 213.404 156.793 216.094C157.414 214.852 157.857 213.315 157.739 211.453C157.532 208.557 156.025 206.577 154.783 205.424L154.754 205.394Z" fill="black"/>
</svg>
