<svg width="256" height="256" viewBox="0 0 256 256" fill="none" xmlns="http://www.w3.org/2000/svg">
<g filter="url(#filter0_d_0_512)">
<path d="M24 101.28C24 73.9444 24 60.2767 29.4042 49.8732C33.9582 41.1064 41.1064 33.9582 49.8732 29.4042C60.2767 24 73.9444 24 101.28 24H154.72C182.056 24 195.723 24 206.127 29.4042C214.894 33.9582 222.042 41.1064 226.596 49.8732C232 60.2767 232 73.9444 232 101.28V154.72C232 182.056 232 195.723 226.596 206.127C222.042 214.894 214.894 222.042 206.127 226.596C195.723 232 182.056 232 154.72 232H101.28C73.9444 232 60.2767 232 49.8732 226.596C41.1064 222.042 33.9582 214.894 29.4042 206.127C24 195.723 24 182.056 24 154.72V101.28Z" fill="white"/>
<path d="M131.397 209.959C130.812 209.779 130.867 208.918 131.438 208.7C134.456 207.549 137.12 206.547 139.747 205.47C142.505 204.342 145.087 202.863 147.495 201.057C149.074 199.879 149.049 199.202 147.269 198.274C141.176 195.089 136.913 190.225 134.355 183.831C129.992 172.923 133.077 160.035 141.878 152.437C151.13 144.438 163.743 143.109 174.174 149.002C190.272 158.104 193.783 177.813 181.722 192.381C169.234 207.476 153.212 213.595 133.779 210.51C132.976 210.385 132.199 210.159 131.397 209.959Z" fill="#6C94EC"/>
<path d="M81.0496 151.361C94.6072 151.361 105.598 140.37 105.598 126.812C105.598 113.255 94.6072 102.264 81.0496 102.264C67.492 102.264 56.5014 113.255 56.5014 126.812C56.5014 140.37 67.492 151.361 81.0496 151.361Z" fill="white"/>
<path d="M81.0587 154.894C65.5875 154.894 53 142.307 53 126.836C53 111.364 65.5875 98.7769 81.0587 98.7769C96.5298 98.7769 109.117 111.364 109.117 126.836C109.117 142.307 96.5298 154.894 81.0587 154.894ZM81.0587 105.798C69.449 105.798 60.0209 115.226 60.0209 126.836C60.0209 138.445 69.449 147.873 81.0587 147.873C92.6683 147.873 102.096 138.445 102.096 126.836C102.096 115.226 92.6683 105.798 81.0587 105.798Z" fill="black"/>
<path d="M160.56 104.595C174.117 104.595 185.108 93.6048 185.108 80.0472C185.108 66.4896 174.117 55.499 160.56 55.499C147.002 55.499 136.012 66.4896 136.012 80.0472C136.012 93.6048 147.002 104.595 160.56 104.595Z" fill="#6C94EC"/>
<path d="M160.595 108.093C160.6 108.089 160.596 108.081 160.59 108.081C150.892 108.075 141.447 103.035 136.26 94.064C132.524 87.5696 131.521 80.0221 133.452 72.7755C135.382 65.5289 140.046 59.4859 146.516 55.7497C159.905 48.0267 177.107 52.6154 184.83 66.0053C192.553 79.3953 187.964 96.5966 174.549 104.345C170.142 106.874 165.334 108.103 160.6 108.106C160.594 108.106 160.59 108.098 160.595 108.093ZM160.532 58.9844C156.972 58.9844 153.361 59.8871 150.051 61.7928C145.187 64.6011 141.701 69.1397 140.247 74.5558C138.793 79.9971 139.545 85.664 142.353 90.5285C148.145 100.583 161.059 104.044 171.089 98.2264C181.144 92.4342 184.579 79.5206 178.787 69.4907C174.9 62.7456 167.804 58.9844 160.532 58.9844Z" fill="black"/>
<path d="M174.225 149.028C174.2 149.028 174.176 149.021 174.154 149.009C163.73 143.138 151.134 144.473 141.891 152.463C133.09 160.061 130.005 172.924 134.368 183.857C136.475 189.148 139.759 193.385 144.273 196.494C145.226 197.146 146.229 197.748 147.282 198.3C149.062 199.228 149.087 199.905 147.508 201.083C146.658 201.708 145.809 202.307 144.911 202.857C144.904 202.861 144.905 202.863 144.897 202.863C144.888 202.863 144.871 202.866 144.864 202.87C144.755 202.935 144.646 203.001 144.555 203.067C144.534 203.081 144.525 203.088 144.502 203.101C144.472 203.118 144.433 203.148 144.403 203.166C142.913 204.057 141.373 204.826 139.759 205.496C139.684 205.521 139.634 205.546 139.559 205.572C137.829 206.274 136.099 206.951 134.268 207.653C133.917 207.778 133.566 207.929 133.215 208.054C132.764 208.229 132.287 208.405 131.836 208.581C131.492 208.709 131.141 208.846 130.781 208.987C130.48 209.104 130.468 209.539 130.758 209.684C131.059 209.834 131.259 209.935 131.46 209.985C132.237 210.21 133.039 210.411 133.842 210.536C136.124 210.887 138.355 211.138 140.537 211.238C157.011 212.066 170.777 205.747 181.81 192.407C193.863 177.849 190.365 158.157 174.295 149.047C174.274 149.034 174.249 149.028 174.225 149.028ZM152.899 194.012C152.222 193.385 151.394 192.808 150.391 192.282C145.828 189.9 142.643 186.339 140.662 181.349C137.377 173.1 139.684 163.321 146.329 157.603C150.517 153.993 155.456 152.137 160.471 152.137C164.007 152.137 167.567 153.065 170.877 154.946C176.82 158.306 180.707 163.521 181.835 169.69C183.013 176.033 181.133 182.553 176.544 188.119C171.14 194.642 165.185 199.175 158.485 201.806C157.025 202.38 155.531 200.718 155.431 199.152C155.256 196.695 153.977 195.015 152.924 194.037L152.899 194.012Z" fill="black"/>
</g>
<defs>
<filter id="filter0_d_0_512" x="18" y="24" width="220" height="220" filterUnits="userSpaceOnUse" color-interpolation-filters="sRGB">
<feFlood flood-opacity="0" result="BackgroundImageFix"/>
<feColorMatrix in="SourceAlpha" type="matrix" values="0 0 0 0 0 0 0 0 0 0 0 0 0 0 0 0 0 0 127 0" result="hardAlpha"/>
<feOffset dy="6"/>
<feGaussianBlur stdDeviation="3"/>
<feColorMatrix type="matrix" values="0 0 0 0 0 0 0 0 0 0 0 0 0 0 0 0 0 0 0.238309 0"/>
<feBlend mode="normal" in2="BackgroundImageFix" result="effect1_dropShadow_0_512"/>
<feBlend mode="normal" in="SourceGraphic" in2="effect1_dropShadow_0_512" result="shape"/>
</filter>
</defs>
</svg>
